# xmcd CD database file
#
# Track frame offsets:
#	150
#	27305
#	54048
#	90393
#	118159
#	145283
#	183037
#	216547
#	246453
#	273733
#
# Disc length: 4001 seconds
#
# Revision: 0
# Processed by: cddbd v1.5.2PL0 Copyright (c) Steve Scherf et al.
# Submitted via: CDex 1.50
#
DISCID=920f9f0a
DTITLE=Unbekannt - Saxophon Lounge
DYEAR=2008
DGENRE=Jazz
TTITLE0=Sensible Note
TTITLE1=Flirtation
TTITLE2=Boiling Sense
TTITLE3=Ardent Desire
TTITLE4=Giving up
TTITLE5=Exotic Delight
TTITLE6=Prickling Feelings
TTITLE7=Vibrant Sense
TTITLE8=Exotic Dreams
TTITLE9=Life Expectancy
EXTD=YEAR: 2008
EXTT0=
EXTT1=
EXTT2=
EXTT3=
EXTT4=
EXTT5=
EXTT6=
EXTT7=
EXTT8=
EXTT9=
PLAYORDER=
